<?xml version="1.0" standalone="no"?>
<!DOCTYPE svg PUBLIC "-//W3C//DTD SVG 20010904//EN"
 "http://www.w3.org/TR/2001/REC-SVG-20010904/DTD/svg10.dtd">
<svg version="1.0" xmlns="http://www.w3.org/2000/svg"
 width="300.000000pt" height="300.000000pt" viewBox="0 0 300.000000 300.000000"
 preserveAspectRatio="xMidYMid meet">
<metadata>
Created by potrace 1.10, written by Peter Selinger 2001-2011
</metadata>
<g transform="translate(0.000000,300.000000) scale(0.100000,-0.100000)"
fill="#000000" stroke="none">
<path d="M810 2542 c-22 -12 -44 -35 -57 -62 -22 -43 -23 -52 -23 -375 l0
-330 -25 32 c-51 65 -108 64 -195 -4 -97 -75 -115 -132 -59 -184 31 -29 36
-31 97 -31 41 -1 40 -7 -3 -36 -20 -12 -41 -34 -47 -47 -24 -53 44 -130 106
-118 26 5 27 4 17 -15 -6 -12 -10 -63 -9 -119 l2 -98 5 96 c6 102 18 129 55
129 11 0 27 4 34 9 21 13 -27 22 -50 10 -23 -12 -23 -7 1 39 25 50 6 98 -54
130 -19 10 -19 11 5 16 14 2 51 7 84 10 56 5 58 4 52 -17 -14 -47 -19 -197 -7
-197 7 0 11 25 11 74 0 76 15 140 28 119 4 -6 5 -52 2 -102 l-5 -91 28 0 27 0
0 135 c0 156 10 214 55 311 34 76 52 95 66 73 4 -7 10 -11 12 -9 5 6 19 150
14 150 -2 0 -31 -15 -65 -33 -44 -23 -59 -36 -51 -44 7 -7 1 -26 -21 -62 -18
-29 -41 -75 -51 -102 l-20 -51 26 -24 c29 -27 32 -50 9 -82 -14 -21 -21 -22
-168 -22 -170 0 -186 6 -186 68 0 31 37 72 66 72 7 0 16 9 19 20 9 29 60 53
96 45 16 -4 39 -20 51 -36 12 -16 29 -29 38 -29 9 0 20 -4 26 -10 6 -6 8 120
6 340 -3 387 -3 392 61 430 31 19 55 20 693 20 656 0 662 0 688 -21 51 -40 56
-63 56 -264 0 -105 -4 -185 -9 -185 -5 0 -16 -3 -25 -6 -14 -5 -16 7 -16 101
0 101 -8 140 -34 157 -6 4 -305 8 -665 8 l-655 0 -23 -22 -23 -21 0 75 c0 70
2 78 29 107 l29 31 499 1 c479 1 524 1 531 -6 2 -2 -10 -17 -27 -34 -21 -22
-28 -36 -24 -53 14 -56 65 -76 103 -38 25 25 24 25 60 -2 37 -27 85 -26 116 3
32 30 30 54 -6 91 -36 36 -37 38 -6 38 14 0 28 5 31 10 4 7 -204 10 -645 8
l-652 -3 -29 -33 -29 -32 0 -308 0 -307 25 44 c24 42 25 49 25 232 0 187 0
189 23 194 12 3 312 4 667 3 l645 -3 3 -137 3 -138 183 0 c170 0 185 -1 210
-21 l26 -20 0 -203 c0 -184 -2 -204 -18 -219 -16 -15 -50 -17 -269 -17 -287 0
-283 -1 -283 84 0 30 -11 74 -31 122 -28 68 -33 74 -60 74 -32 0 -38 14 -13
28 23 13 -94 118 -176 159 -84 41 -136 52 -243 53 -152 0 -292 -61 -390 -170
-191 -212 -182 -532 20 -720 219 -205 541 -201 753 9 91 90 150 221 150 335 0
38 1 39 19 22 14 -12 36 -18 70 -18 l51 1 0 -40 0 -39 130 0 c171 0 173 -2
168 -137 -4 -126 1 -123 -193 -123 -194 0 -195 0 -195 130 0 77 3 93 20 110
11 11 29 20 41 20 11 0 17 5 14 10 -12 19 -43 10 -69 -20 -24 -29 -25 -35 -19
-118 4 -70 11 -97 33 -135 23 -42 28 -46 33 -28 3 12 12 21 21 21 15 0 16 -24
14 -232 l-3 -233 -665 0 -665 0 -3 193 -2 192 -48 0 -47 0 1 -293 c1 -324 2
-333 66 -379 l33 -23 658 -3 c657 -2 659 -2 697 19 21 12 47 38 59 59 20 36
21 50 21 369 l0 331 26 -10 c14 -6 50 -10 79 -10 43 0 60 5 82 24 26 22 28 31
33 113 3 48 1 102 -3 118 -17 60 -82 82 -179 62 -37 -8 -38 -7 -38 23 0 31 1
31 33 24 56 -13 248 -6 274 11 36 24 44 80 41 281 l-3 184 -28 27 -28 28 -144
0 -144 0 -3 202 c-3 221 -5 227 -72 277 -27 21 -39 21 -689 24 -626 2 -664 1
-697 -16z m1245 -53 c-4 -5 -10 -7 -14 -4 -4 2 -23 -7 -41 -20 l-34 -25 -25
22 c-14 13 -30 26 -34 29 -5 3 28 7 73 7 49 1 78 -3 75 -9z m-120 -74 c0 -28
-3 -30 -35 -30 -25 0 -36 5 -38 18 -5 27 18 48 47 45 22 -2 26 -8 26 -33z
m170 0 c0 -29 -1 -30 -50 -30 -40 0 -50 4 -53 18 -7 38 5 48 55 45 46 -3 48
-4 48 -33z m-485 -380 c56 -15 135 -52 150 -70 6 -8 -11 -3 -40 11 -164 79
-323 74 -489 -16 l-56 -31 34 30 c90 79 266 112 401 76z m-18 -36 c234 -50
397 -284 361 -518 -36 -230 -226 -391 -462 -391 -224 0 -401 135 -456 347 -85
327 218 634 557 562z m-660 -44 c-2 -10 -13 -26 -25 -36 -12 -9 -37 -47 -56
-83 -35 -67 -53 -85 -44 -43 8 40 55 126 92 170 18 21 37 17 33 -8z m-315
-437 c18 -18 33 -36 33 -42 0 -16 -63 -76 -79 -76 -21 0 -71 54 -71 76 0 22
48 74 69 74 8 0 30 -14 48 -32z m1603 -379 c0 -5 5 -7 11 -4 12 8 11 -143 -2
-187 -4 -14 -4 -29 -1 -33 3 -3 7 -91 9 -195 3 -186 3 -191 -21 -228 -48 -77
0 -72 -721 -72 -702 0 -671 -2 -725 56 l-25 27 0 280 c0 215 3 281 13 284 6 3
12 -3 12 -12 0 -9 4 -13 10 -10 6 3 10 -3 10 -14 0 -11 -5 -23 -10 -26 -6 -4
-9 -89 -8 -228 1 -122 4 -185 5 -139 l4 82 32 -24 32 -23 270 1 c149 1 295 -1
325 -4 l55 -5 -32 -13 c-35 -15 -67 -70 -57 -99 10 -27 36 -54 61 -64 45 -17
113 29 113 76 0 29 -31 76 -57 86 -14 5 -23 13 -19 16 4 4 151 7 327 8 l321 0
19 24 c17 21 19 41 19 230 0 114 3 211 7 214 10 10 23 8 23 -4z m-682 -537
c18 -23 15 -49 -8 -72 -32 -32 -66 -25 -89 18 -30 57 56 106 97 54z"/>
<path d="M1467 1973 c-2 -5 -3 -30 -1 -57 2 -27 0 -54 -3 -60 -4 -5 -7 -24 -7
-41 -1 -29 -2 -30 -51 -31 -55 -1 -74 4 -55 16 8 5 3 7 -13 7 -16 -1 -30 -10
-36 -25 l-11 -22 95 2 95 3 0 108 c0 100 -2 118 -13 100z"/>
<path d="M1520 1873 l0 -108 95 -2 95 -3 -30 60 c-35 69 -81 125 -121 146 -15
7 -30 14 -34 14 -3 0 -5 -48 -5 -107z m90 27 c0 -5 6 -15 14 -22 20 -20 48
-79 42 -86 -12 -12 -113 -14 -120 -3 -12 18 -12 151 -1 155 12 4 65 -32 65
-44z"/>
<path d="M1674 1903 c19 -26 43 -71 54 -98 l20 -50 63 -6 c35 -3 65 -4 67 -3
5 3 -38 84 -44 84 -4 0 -3 -11 0 -25 8 -30 -10 -41 -49 -31 -16 4 -30 20 -44
52 -21 47 -63 103 -88 117 -8 5 2 -13 21 -40z"/>
<path d="M1236 1778 c-10 -6 -39 -12 -64 -13 -25 -1 -47 -6 -49 -11 -4 -12
118 -6 131 6 16 15 2 29 -18 18z"/>
<path d="M1323 1723 c-47 -5 -49 -7 -58 -96 l-7 -67 111 0 111 0 0 85 0 85
-57 -2 c-32 -1 -77 -3 -100 -5z m127 -23 c10 -6 14 -22 12 -47 -6 -73 -6 -73
-87 -73 -85 0 -97 10 -84 69 4 20 8 38 8 41 0 17 126 26 151 10z"/>
<path d="M1520 1645 l0 -85 111 0 112 0 -7 57 c-11 98 -12 100 -63 107 -25 3
-70 6 -99 6 l-54 0 0 -85z m174 44 c8 -8 17 -30 20 -50 9 -51 -7 -61 -96 -57
l-73 3 -3 49 c-2 27 -1 54 2 62 7 18 132 13 150 -7z"/>
<path d="M1168 1713 c-31 -2 -61 -9 -66 -16 -9 -11 -32 -104 -32 -127 0 -6 35
-10 78 -10 l78 0 1 36 c1 20 4 56 8 80 3 24 3 43 -2 42 -4 -1 -34 -3 -65 -5z
m30 -23 c16 0 16 -71 -1 -93 -9 -13 -23 -17 -52 -15 -36 3 -40 6 -43 34 -4 41
32 88 62 80 11 -3 27 -6 34 -6z"/>
<path d="M1764 1688 c3 -17 6 -52 6 -79 l0 -49 81 0 81 0 -6 28 c-3 15 -8 44
-12 64 -8 49 -17 54 -93 61 l-63 5 6 -30z m124 -25 c7 -10 12 -31 10 -48 -3
-26 -7 -30 -38 -33 -49 -3 -61 8 -68 63 l-5 48 44 -6 c25 -3 49 -13 57 -24z"/>
<path d="M1075 1488 c24 -118 26 -120 122 -131 l51 -6 -9 32 c-4 18 -10 56
-11 84 l-3 53 -78 0 -79 0 7 -32z m129 -19 c3 -17 6 -44 6 -60 0 -27 -3 -29
-39 -29 -34 0 -41 4 -55 34 -9 19 -16 46 -16 60 0 24 3 26 49 26 46 0 49 -1
55 -31z"/>
<path d="M1260 1498 c0 -45 23 -150 34 -153 6 -2 50 -5 99 -7 l87 -3 0 93 0
92 -110 0 c-106 0 -110 -1 -110 -22z m188 -7 c9 -5 12 -26 10 -67 l-3 -59 -67
0 c-38 0 -72 5 -79 12 -14 14 -29 91 -22 110 6 15 139 19 161 4z"/>
<path d="M1520 1428 l0 -93 87 3 c49 2 93 5 99 7 9 3 34 118 34 159 0 14 -17
16 -110 16 l-110 0 0 -92z m183 66 c17 -6 14 -72 -6 -112 -10 -21 -16 -23 -81
-20 l-71 3 -3 54 c-5 79 -3 81 77 81 38 0 76 -3 84 -6z"/>
<path d="M1767 1453 c-2 -38 -8 -76 -12 -86 -7 -17 -3 -17 46 -11 88 11 95 16
109 76 6 29 14 61 17 71 4 15 -4 17 -75 17 l-79 0 -6 -67z m133 34 c-1 -74
-27 -107 -85 -107 -23 0 -25 4 -25 44 0 68 5 74 61 74 31 1 49 -3 49 -11z"/>
<path d="M1130 1325 c0 -9 50 -85 56 -85 3 0 3 8 -1 19 -6 21 15 34 40 25 8
-3 30 -31 49 -63 19 -31 52 -69 72 -85 l37 -29 -45 55 c-25 31 -53 76 -63 101
-16 44 -20 46 -64 52 -25 4 -54 9 -63 12 -10 2 -18 2 -18 -2z"/>
<path d="M1798 1318 c-50 -9 -58 -13 -69 -42 -7 -17 -30 -58 -52 -91 -22 -33
-32 -53 -21 -45 31 24 53 53 75 95 27 50 21 45 62 55 30 6 35 5 30 -9 -4 -9
-10 -22 -16 -28 -6 -9 -6 -13 2 -13 6 0 22 18 36 40 26 42 30 51 18 49 -5 -1
-34 -6 -65 -11z"/>
<path d="M1300 1297 c0 -44 131 -187 172 -187 4 0 8 43 8 95 l0 95 -67 0 c-38
0 -78 3 -90 6 -17 5 -23 2 -23 -9z m158 -80 c3 -47 1 -58 -14 -64 -13 -5 -27
4 -51 33 -18 21 -33 45 -33 53 0 8 -8 20 -17 27 -16 12 -9 14 47 12 l65 -3 3
-58z"/>
<path d="M1603 1303 l-83 -4 0 -94 0 -95 28 11 c39 15 100 77 128 131 26 51
28 59 17 56 -5 -1 -45 -4 -90 -5z m45 -36 c14 -17 -63 -117 -89 -117 -16 0
-19 8 -19 49 0 53 10 67 55 74 17 2 33 5 36 6 4 0 11 -5 17 -12z"/>
<path d="M558 1498 c-17 -18 -22 -28 -13 -28 8 0 19 -9 26 -21 l11 -21 14 21
c9 12 23 21 32 22 12 0 11 3 -6 9 -12 5 -26 18 -30 27 -6 16 -10 15 -34 -9z"/>
<path d="M882 2451 c-8 -5 -12 -21 -10 -37 l3 -29 180 0 180 0 3 23 c7 48 -8
52 -182 52 -88 0 -167 -4 -174 -9z m96 -33 c3 -15 -4 -18 -37 -18 -39 0 -53
14 -34 34 14 14 68 1 71 -16z m111 9 c15 -19 4 -27 -35 -27 -34 0 -50 12 -39
30 9 15 61 12 74 -3z m119 -9 c3 -15 -4 -18 -37 -18 -39 0 -53 14 -34 34 14
14 68 1 71 -16z"/>
<path d="M952 2218 c-16 -16 -15 -50 1 -73 13 -17 42 -18 523 -19 280 -1 522
1 539 4 18 3 36 16 44 32 14 24 14 29 -3 47 -19 21 -26 21 -556 21 -403 0
-539 -3 -548 -12z m1096 -37 c2 -13 -2 -28 -10 -32 -7 -5 -250 -9 -539 -9
-565 0 -560 0 -544 50 6 20 9 20 548 18 l542 -3 3 -24z"/>
<path d="M2366 2205 c-21 -32 -12 -69 23 -95 27 -19 28 -19 59 0 18 11 32 23
33 27 0 5 2 18 3 30 7 58 -86 87 -118 38z m89 -5 c15 -16 17 -26 9 -48 -17
-50 -94 -39 -94 14 0 49 52 70 85 34z"/>
<path d="M2407 2184 c-14 -15 -6 -34 14 -34 14 0 19 5 17 17 -3 18 -20 27 -31
17z"/>
<path d="M552 2167 c-18 -18 -32 -38 -32 -44 0 -11 65 -83 75 -83 13 0 55 33
70 56 18 28 9 56 -29 86 -31 25 -48 22 -84 -15z m65 -6 c3 -11 14 -22 25 -24
21 -6 16 -27 -7 -27 -7 0 -16 -11 -19 -25 -4 -14 -11 -25 -16 -25 -5 0 -12 11
-16 25 -4 16 -13 25 -25 25 -25 0 -24 20 1 27 10 3 22 14 25 24 8 24 25 24 32
0z"/>
<path d="M523 2011 c-29 -24 -29 -45 -1 -71 30 -28 53 -25 78 10 l22 31 -27
24 c-31 30 -43 30 -72 6z m56 -18 c20 -16 20 -17 -2 -39 l-21 -22 -22 21 c-21
20 -22 23 -6 39 22 22 27 22 51 1z"/>
<path d="M2030 2010 c-11 -11 -20 -32 -20 -46 0 -15 -12 -37 -32 -56 l-33 -31
35 21 c28 17 36 28 38 56 2 24 12 42 29 56 14 11 21 20 14 20 -6 0 -20 -9 -31
-20z"/>
<path d="M2100 1947 c0 -44 13 -47 206 -47 153 0 185 3 198 16 18 18 18 17 10
38 -5 14 -33 16 -210 16 l-204 0 0 -23z m388 -9 c3 -15 -15 -16 -177 -18 -174
-1 -202 4 -186 30 4 7 71 9 183 8 156 -3 177 -5 180 -20z"/>
<path d="M1986 1833 c-15 -4 -16 -7 -5 -14 7 -4 19 -23 26 -41 l11 -33 1 48
c1 26 -2 46 -6 46 -5 -1 -17 -4 -27 -6z"/>
<path d="M2230 1735 l0 -105 25 0 25 0 0 105 0 105 -25 0 -25 0 0 -105z"/>
<path d="M2420 1736 l0 -106 25 0 26 0 -3 103 c-3 97 -4 102 -25 105 -23 3
-23 2 -23 -102z"/>
<path d="M2138 1823 c-2 -5 -4 -48 -3 -98 l0 -90 28 -3 27 -3 0 100 c0 100 0
101 -24 101 -14 0 -26 -3 -28 -7z"/>
<path d="M2320 1725 l0 -95 30 0 30 0 0 95 0 95 -30 0 -30 0 0 -95z"/>
<path d="M850 1360 c0 -6 7 -13 15 -16 9 -4 15 -19 15 -41 0 -35 0 -35 -22
-19 -13 9 -44 27 -69 40 -41 20 -49 21 -71 10 -32 -17 -49 -57 -47 -110 3 -62
20 -79 81 -78 36 0 53 5 60 17 5 9 15 17 22 17 8 0 17 7 20 16 3 9 13 14 21
11 16 -7 21 7 30 75 5 39 3 50 -14 67 -23 23 -41 27 -41 11z m-22 -84 c45 -29
38 -51 -32 -94 l-58 -36 -24 27 c-34 39 -33 99 1 133 25 25 26 25 53 8 15 -10
42 -27 60 -38z"/>
<path d="M736 1264 c-9 -23 -7 -52 3 -59 6 -3 24 3 41 13 32 20 30 26 -17 50
-17 9 -22 9 -27 -4z"/>
<path d="M2202 1347 c-29 -31 -28 -39 8 -65 17 -13 30 -18 30 -12 0 5 20 10
45 10 32 0 47 5 54 18 17 31 -5 52 -54 52 -25 0 -45 5 -45 10 0 17 -15 11 -38
-13z m81 -14 c-18 -2 -33 -8 -33 -13 0 -5 15 -11 33 -13 28 -3 27 -4 -10 -5
-23 -1 -45 3 -48 8 -12 19 6 30 48 28 37 -1 38 -2 10 -5z"/>
<path d="M2002 1251 c-24 -42 -59 -94 -78 -115 -38 -41 -46 -60 -13 -30 47 42
149 207 137 220 -2 1 -22 -32 -46 -75z"/>
<path d="M1992 1073 c2 -10 10 -18 18 -18 8 0 16 8 18 18 2 12 -3 17 -18 17
-15 0 -20 -5 -18 -17z"/>
<path d="M2047 1045 c-8 -18 -57 -20 -77 -2 -8 6 -6 2 4 -10 11 -13 25 -23 31
-23 17 0 61 37 54 45 -4 3 -9 -1 -12 -10z"/>
<path d="M546 999 c-58 -45 -15 -139 57 -125 42 8 65 40 60 80 -4 28 -29 63
-39 54 -2 -3 2 -11 11 -18 18 -15 20 -71 3 -88 -18 -18 -73 -14 -91 6 -33 37
-15 86 38 101 23 7 25 9 9 10 -12 1 -33 -8 -48 -20z"/>
<path d="M2352 989 c-39 -36 -40 -58 -6 -98 31 -38 47 -39 86 -6 16 14 26 25
23 25 -4 0 -2 7 5 15 7 9 10 19 6 23 -4 4 -12 -1 -17 -11 -6 -9 -16 -17 -23
-17 -8 0 -16 -9 -19 -20 -7 -25 -27 -26 -34 -1 -3 11 -13 21 -24 24 -23 6 -26
27 -4 27 9 0 20 11 25 25 5 14 14 25 20 25 5 0 12 -11 16 -25 4 -15 13 -25 24
-25 42 0 26 27 -36 63 -5 3 -24 -8 -42 -24z"/>
<path d="M567 956 c-6 -15 11 -36 29 -36 14 0 27 28 18 41 -8 14 -41 11 -47
-5z"/>
<path d="M950 935 c-10 -12 -10 -18 0 -30 11 -13 56 -15 291 -15 l279 0 0 30
0 30 -279 0 c-235 0 -280 -2 -291 -15z"/>
<path d="M950 815 c-10 -12 -10 -18 0 -30 11 -13 82 -15 559 -13 525 3 546 4
549 22 2 10 -2 22 -10 27 -7 5 -254 9 -549 9 -465 0 -538 -2 -549 -15z m1070
-15 c0 -6 -24 -10 -52 -10 -29 0 -132 0 -228 -1 -534 -1 -750 2 -750 11 0 6
119 11 323 12 443 4 707 -1 707 -12z"/>
</g>
</svg>
